<?xml version="1.0" encoding="utf-8"?>
<svg version="1.1" id="adobe" class="pdfdoc" xmlns="http://www.w3.org/2000/svg" xmlns:xlink="http://www.w3.org/1999/xlink" x="0px" y="0px"
     width="16px" height="16px" viewBox="0 0 41.5 39.587" enable-background="new 0 0 41.5 39.587" xml:space="preserve">
<path id="doc" fill="#B52025" d="M36.023,39.444H9.176c-1.85,0-3.356-1.505-3.356-3.356V1.187c0-1.85,1.506-3.356,3.356-3.356
	h13.655c0.896,0,1.741,0.349,2.375,0.983l13.19,13.192c0.634,0.633,0.983,1.477,0.983,2.373v21.708
	C39.379,37.939,37.874,39.444,36.023,39.444z"/>
    <path id="path" fill="#FFFFFF" d="M3.735,39.585c-0.487,0-0.963-0.117-1.414-0.344L1.28,38.721c-0.534-0.305-0.763-0.967-0.611-1.77
	c0.414-1.997,2.858-4.496,6.539-6.695c0.444-0.283,2.287-1.263,2.366-1.305l1.076-0.572c1.234-2.105,2.43-4.335,3.504-6.435
	l0.34-0.672c1.151-2.27,2.456-4.844,3.516-7.396l0.392-0.967c-1.53-5.866-2.375-10.393-1.552-13.412
	c0.253-0.938,1.285-1.596,2.51-1.596h0.755c1.542,0,2.343,1.775,2.429,2.725c0.127,1.146-0.383,2.997-0.405,3.074l-0.053,0.19
	l0.069,0.011c-0.011,0.218-0.275,5.363-0.608,6.999l-0.007,0.029c-0.042,0.154-0.078,0.315-0.115,0.486
	c-0.028,0.129-0.057,0.261-0.089,0.392c1.258,3.449,3.273,6.573,5.685,8.811c0.938,0.853,2.118,1.575,3.171,2.172
	c2.561-0.356,4.839-0.521,6.758-0.493c2.848,0.033,4.729,0.47,5.589,1.298c0.322,0.294,0.533,0.662,0.638,1.111l-0.119,1.659
	c-0.06,0.26-0.267,1.136-0.436,1.44l-0.024,0.04c-0.287,0.41-0.806,0.761-1.292,0.873c-0.337,0.088-0.768,0.135-1.268,0.135
	c-2.376,0-6.857-1.104-11.136-3.526c-4.822,0.724-10.377,2.041-15.296,3.626C9.39,36.303,6.342,39.584,3.735,39.585L3.735,39.585z"
    />
    <path id="left" fill="#B52025" d="M11.085,28.777c-2.295,1.867-3.826,4.004-4.16,5.04c1.47-0.613,3.321-3.007,5.141-5.936
	C11.717,28.215,11.271,28.636,11.085,28.777z"/>
    <path id="right" fill="#B52025" d="M31.417,23.528c2.164,0.944,4.238,1.527,5.51,1.527c0.398,0,0.608-0.061,0.716-0.112
	c0.117-0.053,0.371-0.413,0.371-0.413c-0.001-0.003-0.086-0.369-1.402-0.801c-0.641-0.198-1.602-0.299-2.851-0.299
	C33.056,23.431,32.271,23.464,31.417,23.528z"/>
    <path id="top" fill="#B52025" d="M20.244,3.162c-0.054,0.094-0.112,0.246-0.147,0.495l-0.002,0.011
	c-0.119,0.688-0.162,1.553-0.162,1.966c0,1.308,0.214,2.925,0.597,4.575c0.213-0.841,0.764-2.996,0.85-3.332V6.584
	c0-0.563,0.003-1.415-0.324-2.108C20.673,3.625,20.4,3.292,20.244,3.162z"/>
    <path id="center" fill="#B52025" d="M24.749,21.716c0.429,0.358,0.906,0.716,1.384,1.049c-3.556,0.668-7.301,1.599-10.761,3.054
	c0.62-1.121,1.312-2.338,2.004-3.65c1.336-2.553,2.172-4.509,2.84-6.371C21.289,17.994,22.792,20.069,24.749,21.716z"/>
</svg>
